<svg xmlns="http://www.w3.org/2000/svg" width="240" height="240" viewBox="0 0 240 240" data-codepoint="U+0078" data-char="x" data-variant="alt">
    <title>Glyph U+0078 (x) alt</title>
    <desc>Generated glyph for U+0078 | LATIN SMALL LETTER X | grid 8x8 | 256 bits | inverse occupancy (0=active,1=inactive)</desc>

    <!-- Background -->
    <rect x="0" y="0" width="240" height="240" fill="#fff"/>

    <!-- Grid cells, each cell has 4 editable triangles (class-based selectors) -->
    <g fill="#000" shape-rendering="crispEdges">
        <polygon class="r0c3-top" points="90,0 120,0 105,15"/>
        <polygon class="r0c3-right" points="120,0 120,30 105,15"/>
        <polygon class="r0c4-top" points="120,0 150,0 135,15"/>
        <polygon class="r0c4-left" points="120,30 120,0 135,15"/>



        <polygon class="r3c0-bottom" points="30,120 0,120 15,105"/>
        <polygon class="r3c0-left" points="0,120 0,90 15,105"/>
        <polygon class="r3c7-right" points="240,90 240,120 225,105"/>
        <polygon class="r3c7-bottom" points="240,120 210,120 225,105"/>

        <polygon class="r4c0-top" points="0,120 30,120 15,135"/>
        <polygon class="r4c0-left" points="0,150 0,120 15,135"/>
        <polygon class="r4c7-top" points="210,120 240,120 225,135"/>
        <polygon class="r4c7-right" points="240,120 240,150 225,135"/>



        <polygon class="r7c3-right" points="120,210 120,240 105,225"/>
        <polygon class="r7c3-bottom" points="120,240 90,240 105,225"/>
        <polygon class="r7c4-bottom" points="150,240 120,240 135,225"/>
        <polygon class="r7c4-left" points="120,240 120,210 135,225"/>
    </g>
</svg>
