<svg xmlns="http://www.w3.org/2000/svg" width="240" height="240" viewBox="0 0 240 240" data-codepoint="U+0035" data-char="5" data-variant="alt">
    <title>Glyph U+0035 (5) alt</title>
    <desc>Generated glyph for U+0035 | DIGIT FIVE | grid 8x8 | 256 bits | inverse occupancy (0=active,1=inactive)</desc>

    <!-- Background -->
    <rect x="0" y="0" width="240" height="240" fill="#fff"/>

    <!-- Grid cells, each cell has 4 editable triangles (class-based selectors) -->
    <g fill="#000" shape-rendering="crispEdges">


        <polygon class="r2c6-top" points="180,60 210,60 195,75"/>
        <polygon class="r2c6-right" points="210,60 210,90 195,75"/>
        <polygon class="r2c6-bottom" points="210,90 180,90 195,75"/>
        <polygon class="r2c6-left" points="180,90 180,60 195,75"/>
        <polygon class="r2c7-top" points="210,60 240,60 225,75"/>
        <polygon class="r2c7-right" points="240,60 240,90 225,75"/>
        <polygon class="r2c7-bottom" points="240,90 210,90 225,75"/>
        <polygon class="r2c7-left" points="210,90 210,60 225,75"/>


        <polygon class="r4c0-bottom" points="30,150 0,150 15,135"/>
        <polygon class="r4c0-left" points="0,150 0,120 15,135"/>

        <polygon class="r5c0-top" points="0,150 30,150 15,165"/>
        <polygon class="r5c0-left" points="0,180 0,150 15,165"/>


    </g>
</svg>
