<svg xmlns="http://www.w3.org/2000/svg" width="240" height="240" viewBox="0 0 240 240" data-codepoint="U+0062" data-char="b" data-variant="alt">
    <title>Glyph U+0062 (b) alt</title>
    <desc>Generated glyph for U+0062 | LATIN SMALL LETTER B | grid 8x8 | 256 bits | inverse occupancy (0=active,1=inactive)</desc>

    <!-- Background -->
    <rect x="0" y="0" width="240" height="240" fill="#fff"/>

    <!-- Grid cells, each cell has 4 editable triangles (class-based selectors) -->
    <g fill="#000" shape-rendering="crispEdges">
        <polygon class="r0c7-top" points="210,0 240,0 225,15"/>
        <polygon class="r0c7-right" points="240,0 240,30 225,15"/>


        <polygon class="r2c4-top" points="120,60 150,60 135,75"/>
        <polygon class="r2c4-right" points="150,60 150,90 135,75"/>
        <polygon class="r2c4-bottom" points="150,90 120,90 135,75"/>
        <polygon class="r2c4-left" points="120,90 120,60 135,75"/>

        <polygon class="r3c7-right" points="240,90 240,120 225,105"/>
        <polygon class="r3c7-bottom" points="240,120 210,120 225,105"/>

        <polygon class="r4c7-top" points="210,120 240,120 225,135"/>
        <polygon class="r4c7-right" points="240,120 240,150 225,135"/>

        <polygon class="r5c4-top" points="120,150 150,150 135,165"/>
        <polygon class="r5c4-right" points="150,150 150,180 135,165"/>
        <polygon class="r5c4-bottom" points="150,180 120,180 135,165"/>
        <polygon class="r5c4-left" points="120,180 120,150 135,165"/>


        <polygon class="r7c7-right" points="240,210 240,240 225,225"/>
        <polygon class="r7c7-bottom" points="240,240 210,240 225,225"/>
    </g>
</svg>
