<svg xmlns="http://www.w3.org/2000/svg" width="240" height="240" viewBox="0 0 240 240" data-codepoint="U+0063" data-char="c" data-variant="alt">
    <title>Glyph U+0063 (c) alt</title>
    <desc>Generated glyph for U+0063 | LATIN SMALL LETTER C | grid 8x8 | 256 bits | inverse occupancy (0=active,1=inactive)</desc>

    <!-- Background -->
    <rect x="0" y="0" width="240" height="240" fill="#fff"/>

    <!-- Grid cells, each cell has 4 editable triangles (class-based selectors) -->
    <g fill="#000" shape-rendering="crispEdges">
        <polygon class="r0c0-top" points="0,0 30,0 15,15"/>
        <polygon class="r0c0-left" points="0,30 0,0 15,15"/>



        <polygon class="r3c7-top" points="210,90 240,90 225,105"/>
        <polygon class="r3c7-right" points="240,90 240,120 225,105"/>
        <polygon class="r3c7-bottom" points="240,120 210,120 225,105"/>
        <polygon class="r3c7-left" points="210,120 210,90 225,105"/>

        <polygon class="r4c7-top" points="210,120 240,120 225,135"/>
        <polygon class="r4c7-right" points="240,120 240,150 225,135"/>
        <polygon class="r4c7-bottom" points="240,150 210,150 225,135"/>
        <polygon class="r4c7-left" points="210,150 210,120 225,135"/>



        <polygon class="r7c0-bottom" points="30,240 0,240 15,225"/>
        <polygon class="r7c0-left" points="0,240 0,210 15,225"/>
    </g>
</svg>
