<svg xmlns="http://www.w3.org/2000/svg" width="240" height="240" viewBox="0 0 240 240" data-codepoint="U+0037" data-char="7" data-variant="alt">
    <title>Glyph U+0037 (7) alt</title>
    <desc>Generated glyph for U+0037 | DIGIT SEVEN | grid 8x8 | 256 bits | inverse occupancy (0=active,1=inactive)</desc>

    <!-- Background -->
    <rect x="0" y="0" width="240" height="240" fill="#fff"/>

    <!-- Grid cells, each cell has 4 editable triangles (class-based selectors) -->
    <g fill="#000" shape-rendering="crispEdges">



        <polygon class="r3c0-top" points="0,90 30,90 15,105"/>
        <polygon class="r3c0-left" points="0,120 0,90 15,105"/>



        <polygon class="r6c7-top" points="210,180 240,180 225,195"/>
        <polygon class="r6c7-right" points="240,180 240,210 225,195"/>
        <polygon class="r6c7-bottom" points="240,210 210,210 225,195"/>
        <polygon class="r6c7-left" points="210,210 210,180 225,195"/>

        <polygon class="r7c7-top" points="210,210 240,210 225,225"/>
        <polygon class="r7c7-right" points="240,210 240,240 225,225"/>
        <polygon class="r7c7-bottom" points="240,240 210,240 225,225"/>
        <polygon class="r7c7-left" points="210,240 210,210 225,225"/>
    </g>
</svg>
