<svg xmlns="http://www.w3.org/2000/svg" width="240" height="240" viewBox="0 0 240 240" data-codepoint="U+0038" data-char="8" data-variant="alt">
    <title>Glyph U+0038 (8) alt</title>
    <desc>Generated glyph for U+0038 | DIGIT EIGHT | grid 8x8 | 256 bits | inverse occupancy (0=active,1=inactive)</desc>

    <!-- Background -->
    <rect x="0" y="0" width="240" height="240" fill="#fff"/>

    <!-- Grid cells, each cell has 4 editable triangles (class-based selectors) -->
    <g fill="#000" shape-rendering="crispEdges">


        <polygon class="r2c3-top" points="90,60 120,60 105,75"/>
        <polygon class="r2c3-right" points="120,60 120,90 105,75"/>
        <polygon class="r2c4-top" points="120,60 150,60 135,75"/>
        <polygon class="r2c4-left" points="120,90 120,60 135,75"/>

        <polygon class="r3c0-bottom" points="30,120 0,120 15,105"/>
        <polygon class="r3c0-left" points="0,120 0,90 15,105"/>
        <polygon class="r3c7-right" points="240,90 240,120 225,105"/>
        <polygon class="r3c7-bottom" points="240,120 210,120 225,105"/>

        <polygon class="r4c0-top" points="0,120 30,120 15,135"/>
        <polygon class="r4c0-left" points="0,150 0,120 15,135"/>
        <polygon class="r4c7-top" points="210,120 240,120 225,135"/>
        <polygon class="r4c7-right" points="240,120 240,150 225,135"/>

        <polygon class="r5c3-right" points="120,150 120,180 105,165"/>
        <polygon class="r5c3-bottom" points="120,180 90,180 105,165"/>
        <polygon class="r5c4-bottom" points="150,180 120,180 135,165"/>
        <polygon class="r5c4-left" points="120,180 120,150 135,165"/>


    </g>
</svg>
