<svg xmlns="http://www.w3.org/2000/svg" width="240" height="240" viewBox="0 0 240 240" data-codepoint="U+0079" data-char="y" data-variant="alt">
    <title>Glyph U+0079 (y) alt</title>
    <desc>Generated glyph for U+0079 | LATIN SMALL LETTER Y | grid 8x8 | 256 bits | inverse occupancy (0=active,1=inactive)</desc>

    <!-- Background -->
    <rect x="0" y="0" width="240" height="240" fill="#fff"/>

    <!-- Grid cells, each cell has 4 editable triangles (class-based selectors) -->
    <g fill="#000" shape-rendering="crispEdges">
        <polygon class="r0c3-top" points="90,0 120,0 105,15"/>
        <polygon class="r0c3-right" points="120,0 120,30 105,15"/>
        <polygon class="r0c4-top" points="120,0 150,0 135,15"/>
        <polygon class="r0c4-left" points="120,30 120,0 135,15"/>







        <polygon class="r7c0-top" points="0,210 30,210 15,225"/>
        <polygon class="r7c0-right" points="30,210 30,240 15,225"/>
        <polygon class="r7c0-bottom" points="30,240 0,240 15,225"/>
        <polygon class="r7c0-left" points="0,240 0,210 15,225"/>
        <polygon class="r7c7-top" points="210,210 240,210 225,225"/>
        <polygon class="r7c7-right" points="240,210 240,240 225,225"/>
        <polygon class="r7c7-bottom" points="240,240 210,240 225,225"/>
        <polygon class="r7c7-left" points="210,240 210,210 225,225"/>
    </g>
</svg>
