<svg xmlns="http://www.w3.org/2000/svg" width="240" height="240" viewBox="0 0 240 240" data-codepoint="U+0072" data-char="r" data-variant="alt">
    <title>Glyph U+0072 (r) alt</title>
    <desc>Generated glyph for U+0072 | LATIN SMALL LETTER R | grid 8x8 | 256 bits | inverse occupancy (0=active,1=inactive)</desc>

    <!-- Background -->
    <rect x="0" y="0" width="240" height="240" fill="#fff"/>

    <!-- Grid cells, each cell has 4 editable triangles (class-based selectors) -->
    <g fill="#000" shape-rendering="crispEdges">


        <polygon class="r2c4-top" points="120,60 150,60 135,75"/>
        <polygon class="r2c4-right" points="150,60 150,90 135,75"/>
        <polygon class="r2c4-bottom" points="150,90 120,90 135,75"/>
        <polygon class="r2c4-left" points="120,90 120,60 135,75"/>


        <polygon class="r4c7-top" points="210,120 240,120 225,135"/>
        <polygon class="r4c7-right" points="240,120 240,150 225,135"/>


        <polygon class="r6c4-top" points="120,180 150,180 135,195"/>
        <polygon class="r6c4-right" points="150,180 150,210 135,195"/>
        <polygon class="r6c4-bottom" points="150,210 120,210 135,195"/>
        <polygon class="r6c4-left" points="120,210 120,180 135,195"/>

        <polygon class="r7c4-top" points="120,210 150,210 135,225"/>
        <polygon class="r7c4-right" points="150,210 150,240 135,225"/>
        <polygon class="r7c4-bottom" points="150,240 120,240 135,225"/>
        <polygon class="r7c4-left" points="120,240 120,210 135,225"/>
    </g>
</svg>
