<svg xmlns="http://www.w3.org/2000/svg" width="240" height="240" viewBox="0 0 240 240" data-codepoint="U+0061" data-char="a" data-variant="alt">
    <title>Glyph U+0061 (a) alt</title>
    <desc>Generated glyph for U+0061 | LATIN SMALL LETTER A | grid 8x8 | 256 bits | inverse occupancy (0=active,1=inactive)</desc>

    <!-- Background -->
    <rect x="0" y="0" width="240" height="240" fill="#fff"/>

    <!-- Grid cells, each cell has 4 editable triangles (class-based selectors) -->
    <g fill="#000" shape-rendering="crispEdges">



        <polygon class="r3c3-top" points="90,90 120,90 105,105"/>
        <polygon class="r3c3-right" points="120,90 120,120 105,105"/>
        <polygon class="r3c3-bottom" points="120,120 90,120 105,105"/>
        <polygon class="r3c3-left" points="90,120 90,90 105,105"/>
        <polygon class="r3c4-top" points="120,90 150,90 135,105"/>
        <polygon class="r3c4-right" points="150,90 150,120 135,105"/>
        <polygon class="r3c4-bottom" points="150,120 120,120 135,105"/>
        <polygon class="r3c4-left" points="120,120 120,90 135,105"/>




        <polygon class="r7c3-top" points="90,210 120,210 105,225"/>
        <polygon class="r7c3-right" points="120,210 120,240 105,225"/>
        <polygon class="r7c3-bottom" points="120,240 90,240 105,225"/>
        <polygon class="r7c3-left" points="90,240 90,210 105,225"/>
        <polygon class="r7c4-top" points="120,210 150,210 135,225"/>
        <polygon class="r7c4-right" points="150,210 150,240 135,225"/>
        <polygon class="r7c4-bottom" points="150,240 120,240 135,225"/>
        <polygon class="r7c4-left" points="120,240 120,210 135,225"/>
    </g>
</svg>
