<svg xmlns="http://www.w3.org/2000/svg" width="240" height="240" viewBox="0 0 240 240">
    <!-- Background (initial square) -->
    <rect x="0" y="0" width="240" height="240" fill="#fff"/>

    <!-- 8×8 cells, each cell is 4 editable triangles (ids: r{row}c{col}-{top|right|bottom|left}) -->
    <g fill="#000" shape-rendering="crispEdges">
        <polygon id="r0c0-top" points="0,0 30,0 15,15"/>
        <polygon id="r0c0-right" points="30,0 30,30 15,15"/>
        <polygon id="r0c0-bottom" points="30,30 0,30 15,15"/>
        <polygon id="r0c0-left" points="0,30 0,0 15,15"/>
        <polygon id="r0c1-top" points="30,0 60,0 45,15"/>
        <polygon id="r0c1-right" points="60,0 60,30 45,15"/>
        <polygon id="r0c1-bottom" points="60,30 30,30 45,15"/>
        <polygon id="r0c1-left" points="30,30 30,0 45,15"/>
        <polygon id="r0c2-top" points="60,0 90,0 75,15"/>
        <polygon id="r0c2-right" points="90,0 90,30 75,15"/>
        <polygon id="r0c2-bottom" points="90,30 60,30 75,15"/>
        <polygon id="r0c2-left" points="60,30 60,0 75,15"/>
        <polygon id="r0c3-top" points="90,0 120,0 105,15"/>
        <polygon id="r0c3-right" points="120,0 120,30 105,15"/>
        <polygon id="r0c3-bottom" points="120,30 90,30 105,15"/>
        <polygon id="r0c3-left" points="90,30 90,0 105,15"/>
        <polygon id="r0c4-top" points="120,0 150,0 135,15"/>
        <polygon id="r0c4-right" points="150,0 150,30 135,15"/>
        <polygon id="r0c4-bottom" points="150,30 120,30 135,15"/>
        <polygon id="r0c4-left" points="120,30 120,0 135,15"/>
        <polygon id="r0c5-top" points="150,0 180,0 165,15"/>
        <polygon id="r0c5-right" points="180,0 180,30 165,15"/>
        <polygon id="r0c5-bottom" points="180,30 150,30 165,15"/>
        <polygon id="r0c5-left" points="150,30 150,0 165,15"/>
        <polygon id="r0c6-top" points="180,0 210,0 195,15"/>
        <polygon id="r0c6-right" points="210,0 210,30 195,15"/>
        <polygon id="r0c6-bottom" points="210,30 180,30 195,15"/>
        <polygon id="r0c6-left" points="180,30 180,0 195,15"/>
<!--
        <polygon id="r0c7-top" points="210,0 240,0 225,15"/>
        <polygon id="r0c7-right" points="240,0 240,30 225,15"/>
        <polygon id="r0c7-bottom" points="240,30 210,30 225,15"/>
        <polygon id="r0c7-left" points="210,30 210,0 225,15"/>
-->

        <polygon id="r1c0-top" points="0,30 30,30 15,45"/>
        <polygon id="r1c0-right" points="30,30 30,60 15,45"/>
        <polygon id="r1c0-bottom" points="30,60 0,60 15,45"/>
        <polygon id="r1c0-left" points="0,60 0,30 15,45"/>
        <polygon id="r1c1-top" points="30,30 60,30 45,45"/>
        <polygon id="r1c1-right" points="60,30 60,60 45,45"/>
        <polygon id="r1c1-bottom" points="60,60 30,60 45,45"/>
        <polygon id="r1c1-left" points="30,60 30,30 45,45"/>
        <polygon id="r1c2-top" points="60,30 90,30 75,45"/>
        <polygon id="r1c2-right" points="90,30 90,60 75,45"/>
        <polygon id="r1c2-bottom" points="90,60 60,60 75,45"/>
        <polygon id="r1c2-left" points="60,60 60,30 75,45"/>
        <polygon id="r1c3-top" points="90,30 120,30 105,45"/>
        <polygon id="r1c3-right" points="120,30 120,60 105,45"/>
        <polygon id="r1c3-bottom" points="120,60 90,60 105,45"/>
        <polygon id="r1c3-left" points="90,60 90,30 105,45"/>
        <polygon id="r1c4-top" points="120,30 150,30 135,45"/>
        <polygon id="r1c4-right" points="150,30 150,60 135,45"/>
        <polygon id="r1c4-bottom" points="150,60 120,60 135,45"/>
        <polygon id="r1c4-left" points="120,60 120,30 135,45"/>
        <polygon id="r1c5-top" points="150,30 180,30 165,45"/>
        <polygon id="r1c5-right" points="180,30 180,60 165,45"/>
        <polygon id="r1c5-bottom" points="180,60 150,60 165,45"/>
        <polygon id="r1c5-left" points="150,60 150,30 165,45"/>
        <polygon id="r1c6-top" points="180,30 210,30 195,45"/>
        <polygon id="r1c6-right" points="210,30 210,60 195,45"/>
        <polygon id="r1c6-bottom" points="210,60 180,60 195,45"/>
        <polygon id="r1c6-left" points="180,60 180,30 195,45"/>
<!--
        <polygon id="r1c7-top" points="210,30 240,30 225,45"/>
        <polygon id="r1c7-right" points="240,30 240,60 225,45"/>
        <polygon id="r1c7-bottom" points="240,60 210,60 225,45"/>
        <polygon id="r1c7-left" points="210,60 210,30 225,45"/>
-->

        <polygon id="r2c0-top" points="0,60 30,60 15,75"/>
        <polygon id="r2c0-right" points="30,60 30,90 15,75"/>
        <polygon id="r2c0-bottom" points="30,90 0,90 15,75"/>
        <polygon id="r2c0-left" points="0,90 0,60 15,75"/>
        <polygon id="r2c1-top" points="30,60 60,60 45,75"/>
        <polygon id="r2c1-right" points="60,60 60,90 45,75"/>
        <polygon id="r2c1-bottom" points="60,90 30,90 45,75"/>
        <polygon id="r2c1-left" points="30,90 30,60 45,75"/>
        <polygon id="r2c2-top" points="60,60 90,60 75,75"/>
        <polygon id="r2c2-right" points="90,60 90,90 75,75"/>
        <polygon id="r2c2-bottom" points="90,90 60,90 75,75"/>
        <polygon id="r2c2-left" points="60,90 60,60 75,75"/>
        <polygon id="r2c3-top" points="90,60 120,60 105,75"/>
        <polygon id="r2c3-right" points="120,60 120,90 105,75"/>
        <polygon id="r2c3-bottom" points="120,90 90,90 105,75"/>
        <polygon id="r2c3-left" points="90,90 90,60 105,75"/>
        <polygon id="r2c4-top" points="120,60 150,60 135,75"/>
        <polygon id="r2c4-right" points="150,60 150,90 135,75"/>
        <polygon id="r2c4-bottom" points="150,90 120,90 135,75"/>
        <polygon id="r2c4-left" points="120,90 120,60 135,75"/>
        <polygon id="r2c5-top" points="150,60 180,60 165,75"/>
        <polygon id="r2c5-right" points="180,60 180,90 165,75"/>
        <polygon id="r2c5-bottom" points="180,90 150,90 165,75"/>
        <polygon id="r2c5-left" points="150,90 150,60 165,75"/>
        <polygon id="r2c6-top" points="180,60 210,60 195,75"/>
        <polygon id="r2c6-right" points="210,60 210,90 195,75"/>
        <polygon id="r2c6-bottom" points="210,90 180,90 195,75"/>
        <polygon id="r2c6-left" points="180,90 180,60 195,75"/>
<!--
        <polygon id="r2c7-top" points="210,60 240,60 225,75"/>
        <polygon id="r2c7-right" points="240,60 240,90 225,75"/>
        <polygon id="r2c7-bottom" points="240,90 210,90 225,75"/>
        <polygon id="r2c7-left" points="210,90 210,60 225,75"/>
-->

<!--
        <polygon id="r3c0-top" points="0,90 30,90 15,105"/>
        <polygon id="r3c0-right" points="30,90 30,120 15,105"/>
        <polygon id="r3c0-bottom" points="30,120 0,120 15,105"/>
        <polygon id="r3c0-left" points="0,120 0,90 15,105"/>
-->
        <polygon id="r3c1-top" points="30,90 60,90 45,105"/>
        <polygon id="r3c1-right" points="60,90 60,120 45,105"/>
        <polygon id="r3c1-bottom" points="60,120 30,120 45,105"/>
        <polygon id="r3c1-left" points="30,120 30,90 45,105"/>
        <polygon id="r3c2-top" points="60,90 90,90 75,105"/>
        <polygon id="r3c2-right" points="90,90 90,120 75,105"/>
        <polygon id="r3c2-bottom" points="90,120 60,120 75,105"/>
        <polygon id="r3c2-left" points="60,120 60,90 75,105"/>
        <polygon id="r3c3-top" points="90,90 120,90 105,105"/>
        <polygon id="r3c3-right" points="120,90 120,120 105,105"/>
        <polygon id="r3c3-bottom" points="120,120 90,120 105,105"/>
        <polygon id="r3c3-left" points="90,120 90,90 105,105"/>
        <polygon id="r3c4-top" points="120,90 150,90 135,105"/>
        <polygon id="r3c4-right" points="150,90 150,120 135,105"/>
        <polygon id="r3c4-bottom" points="150,120 120,120 135,105"/>
        <polygon id="r3c4-left" points="120,120 120,90 135,105"/>
        <polygon id="r3c5-top" points="150,90 180,90 165,105"/>
        <polygon id="r3c5-right" points="180,90 180,120 165,105"/>
        <polygon id="r3c5-bottom" points="180,120 150,120 165,105"/>
        <polygon id="r3c5-left" points="150,120 150,90 165,105"/>
        <polygon id="r3c6-top" points="180,90 210,90 195,105"/>
        <polygon id="r3c6-right" points="210,90 210,120 195,105"/>
        <polygon id="r3c6-bottom" points="210,120 180,120 195,105"/>
        <polygon id="r3c6-left" points="180,120 180,90 195,105"/>
<!--        <polygon id="r3c7-top" points="210,90 240,90 225,105"/>
        <polygon id="r3c7-right" points="240,90 240,120 225,105"/>
        <polygon id="r3c7-bottom" points="240,120 210,120 225,105"/>
        <polygon id="r3c7-left" points="210,120 210,90 225,105"/>-->

<!--
        <polygon id="r4c0-top" points="0,120 30,120 15,135"/>
        <polygon id="r4c0-right" points="30,120 30,150 15,135"/>
        <polygon id="r4c0-bottom" points="30,150 0,150 15,135"/>
        <polygon id="r4c0-left" points="0,150 0,120 15,135"/>
-->
        <polygon id="r4c1-top" points="30,120 60,120 45,135"/>
        <polygon id="r4c1-right" points="60,120 60,150 45,135"/>
        <polygon id="r4c1-bottom" points="60,150 30,150 45,135"/>
        <polygon id="r4c1-left" points="30,150 30,120 45,135"/>
        <polygon id="r4c2-top" points="60,120 90,120 75,135"/>
        <polygon id="r4c2-right" points="90,120 90,150 75,135"/>
        <polygon id="r4c2-bottom" points="90,150 60,150 75,135"/>
        <polygon id="r4c2-left" points="60,150 60,120 75,135"/>
        <polygon id="r4c3-top" points="90,120 120,120 105,135"/>
        <polygon id="r4c3-right" points="120,120 120,150 105,135"/>
        <polygon id="r4c3-bottom" points="120,150 90,150 105,135"/>
        <polygon id="r4c3-left" points="90,150 90,120 105,135"/>
        <polygon id="r4c4-top" points="120,120 150,120 135,135"/>
        <polygon id="r4c4-right" points="150,120 150,150 135,135"/>
        <polygon id="r4c4-bottom" points="150,150 120,150 135,135"/>
        <polygon id="r4c4-left" points="120,150 120,120 135,135"/>
        <polygon id="r4c5-top" points="150,120 180,120 165,135"/>
        <polygon id="r4c5-right" points="180,120 180,150 165,135"/>
        <polygon id="r4c5-bottom" points="180,150 150,150 165,135"/>
        <polygon id="r4c5-left" points="150,150 150,120 165,135"/>
        <polygon id="r4c6-top" points="180,120 210,120 195,135"/>
        <polygon id="r4c6-right" points="210,120 210,150 195,135"/>
        <polygon id="r4c6-bottom" points="210,150 180,150 195,135"/>
        <polygon id="r4c6-left" points="180,150 180,120 195,135"/>
<!--
        <polygon id="r4c7-top" points="210,120 240,120 225,135"/>
        <polygon id="r4c7-right" points="240,120 240,150 225,135"/>
        <polygon id="r4c7-bottom" points="240,150 210,150 225,135"/>
        <polygon id="r4c7-left" points="210,150 210,120 225,135"/>
-->

        <polygon id="r5c0-top" points="0,150 30,150 15,165"/>
        <polygon id="r5c0-right" points="30,150 30,180 15,165"/>
        <polygon id="r5c0-bottom" points="30,180 0,180 15,165"/>
        <polygon id="r5c0-left" points="0,180 0,150 15,165"/>
        <polygon id="r5c1-top" points="30,150 60,150 45,165"/>
        <polygon id="r5c1-right" points="60,150 60,180 45,165"/>
        <polygon id="r5c1-bottom" points="60,180 30,180 45,165"/>
        <polygon id="r5c1-left" points="30,180 30,150 45,165"/>
        <polygon id="r5c2-top" points="60,150 90,150 75,165"/>
        <polygon id="r5c2-right" points="90,150 90,180 75,165"/>
        <polygon id="r5c2-bottom" points="90,180 60,180 75,165"/>
        <polygon id="r5c2-left" points="60,180 60,150 75,165"/>
        <polygon id="r5c3-top" points="90,150 120,150 105,165"/>
        <polygon id="r5c3-right" points="120,150 120,180 105,165"/>
        <polygon id="r5c3-bottom" points="120,180 90,180 105,165"/>
        <polygon id="r5c3-left" points="90,180 90,150 105,165"/>
        <polygon id="r5c4-top" points="120,150 150,150 135,165"/>
        <polygon id="r5c4-right" points="150,150 150,180 135,165"/>
        <polygon id="r5c4-bottom" points="150,180 120,180 135,165"/>
        <polygon id="r5c4-left" points="120,180 120,150 135,165"/>
        <polygon id="r5c5-top" points="150,150 180,150 165,165"/>
        <polygon id="r5c5-right" points="180,150 180,180 165,165"/>
        <polygon id="r5c5-bottom" points="180,180 150,180 165,165"/>
        <polygon id="r5c5-left" points="150,180 150,150 165,165"/>
        <polygon id="r5c6-top" points="180,150 210,150 195,165"/>
        <polygon id="r5c6-right" points="210,150 210,180 195,165"/>
        <polygon id="r5c6-bottom" points="210,180 180,180 195,165"/>
        <polygon id="r5c6-left" points="180,180 180,150 195,165"/>
        <polygon id="r5c7-top" points="210,150 240,150 225,165"/>
        <polygon id="r5c7-right" points="240,150 240,180 225,165"/>
        <polygon id="r5c7-bottom" points="240,180 210,180 225,165"/>
        <polygon id="r5c7-left" points="210,180 210,150 225,165"/>

        <polygon id="r6c0-top" points="0,180 30,180 15,195"/>
        <polygon id="r6c0-right" points="30,180 30,210 15,195"/>
        <polygon id="r6c0-bottom" points="30,210 0,210 15,195"/>
        <polygon id="r6c0-left" points="0,210 0,180 15,195"/>
        <polygon id="r6c1-top" points="30,180 60,180 45,195"/>
        <polygon id="r6c1-right" points="60,180 60,210 45,195"/>
        <polygon id="r6c1-bottom" points="60,210 30,210 45,195"/>
        <polygon id="r6c1-left" points="30,210 30,180 45,195"/>
        <polygon id="r6c2-top" points="60,180 90,180 75,195"/>
        <polygon id="r6c2-right" points="90,180 90,210 75,195"/>
        <polygon id="r6c2-bottom" points="90,210 60,210 75,195"/>
        <polygon id="r6c2-left" points="60,210 60,180 75,195"/>
        <polygon id="r6c3-top" points="90,180 120,180 105,195"/>
        <polygon id="r6c3-right" points="120,180 120,210 105,195"/>
        <polygon id="r6c3-bottom" points="120,210 90,210 105,195"/>
        <polygon id="r6c3-left" points="90,210 90,180 105,195"/>
        <polygon id="r6c4-top" points="120,180 150,180 135,195"/>
        <polygon id="r6c4-right" points="150,180 150,210 135,195"/>
        <polygon id="r6c4-bottom" points="150,210 120,210 135,195"/>
        <polygon id="r6c4-left" points="120,210 120,180 135,195"/>
        <polygon id="r6c5-top" points="150,180 180,180 165,195"/>
        <polygon id="r6c5-right" points="180,180 180,210 165,195"/>
        <polygon id="r6c5-bottom" points="180,210 150,210 165,195"/>
        <polygon id="r6c5-left" points="150,210 150,180 165,195"/>
        <polygon id="r6c6-top" points="180,180 210,180 195,195"/>
        <polygon id="r6c6-right" points="210,180 210,210 195,195"/>
        <polygon id="r6c6-bottom" points="210,210 180,210 195,195"/>
        <polygon id="r6c6-left" points="180,210 180,180 195,195"/>
        <polygon id="r6c7-top" points="210,180 240,180 225,195"/>
        <polygon id="r6c7-right" points="240,180 240,210 225,195"/>
        <polygon id="r6c7-bottom" points="240,210 210,210 225,195"/>
        <polygon id="r6c7-left" points="210,210 210,180 225,195"/>

        <polygon id="r7c0-top" points="0,210 30,210 15,225"/>
        <polygon id="r7c0-right" points="30,210 30,240 15,225"/>
        <polygon id="r7c0-bottom" points="30,240 0,240 15,225"/>
        <polygon id="r7c0-left" points="0,240 0,210 15,225"/>
        <polygon id="r7c1-top" points="30,210 60,210 45,225"/>
        <polygon id="r7c1-right" points="60,210 60,240 45,225"/>
        <polygon id="r7c1-bottom" points="60,240 30,240 45,225"/>
        <polygon id="r7c1-left" points="30,240 30,210 45,225"/>
        <polygon id="r7c2-top" points="60,210 90,210 75,225"/>
        <polygon id="r7c2-right" points="90,210 90,240 75,225"/>
        <polygon id="r7c2-bottom" points="90,240 60,240 75,225"/>
        <polygon id="r7c2-left" points="60,240 60,210 75,225"/>
        <polygon id="r7c3-top" points="90,210 120,210 105,225"/>
        <polygon id="r7c3-right" points="120,210 120,240 105,225"/>
        <polygon id="r7c3-bottom" points="120,240 90,240 105,225"/>
        <polygon id="r7c3-left" points="90,240 90,210 105,225"/>
        <polygon id="r7c4-top" points="120,210 150,210 135,225"/>
        <polygon id="r7c4-right" points="150,210 150,240 135,225"/>
        <polygon id="r7c4-bottom" points="150,240 120,240 135,225"/>
        <polygon id="r7c4-left" points="120,240 120,210 135,225"/>
        <polygon id="r7c5-top" points="150,210 180,210 165,225"/>
        <polygon id="r7c5-right" points="180,210 180,240 165,225"/>
        <polygon id="r7c5-bottom" points="180,240 150,240 165,225"/>
        <polygon id="r7c5-left" points="150,240 150,210 165,225"/>
        <polygon id="r7c6-top" points="180,210 210,210 195,225"/>
        <polygon id="r7c6-right" points="210,210 210,240 195,225"/>
        <polygon id="r7c6-bottom" points="210,240 180,240 195,225"/>
        <polygon id="r7c6-left" points="180,240 180,210 195,225"/>
        <polygon id="r7c7-top" points="210,210 240,210 225,225"/>
        <polygon id="r7c7-right" points="240,210 240,240 225,225"/>
        <polygon id="r7c7-bottom" points="240,240 210,240 225,225"/>
        <polygon id="r7c7-left" points="210,240 210,210 225,225"/>
    </g>
</svg>
