<svg xmlns="http://www.w3.org/2000/svg" width="240" height="240" viewBox="0 0 240 240" data-codepoint="U+2665" data-char="♥" data-variant="alt">
    <title>Glyph U+2665 (♥) alt</title>
    <desc>Generated glyph for U+2665 | BLACK HEART SUIT | grid 8x8 | 256 bits | inverse occupancy (0=active,1=inactive)</desc>

    <!-- Background -->
    <rect x="0" y="0" width="240" height="240" fill="#fff"/>

    <!-- Grid cells, each cell has 4 editable triangles (class-based selectors) -->
    <g fill="#000" shape-rendering="crispEdges">
        <polygon class="r0c0-top" points="0,0 30,0 15,15"/>
        <polygon class="r0c0-left" points="0,30 0,0 15,15"/>
        <polygon class="r0c3-top" points="90,0 120,0 105,15"/>
        <polygon class="r0c3-right" points="120,0 120,30 105,15"/>
        <polygon class="r0c4-top" points="120,0 150,0 135,15"/>
        <polygon class="r0c4-left" points="120,30 120,0 135,15"/>
        <polygon class="r0c7-top" points="210,0 240,0 225,15"/>
        <polygon class="r0c7-right" points="240,0 240,30 225,15"/>





        <polygon class="r5c0-bottom" points="30,180 0,180 15,165"/>
        <polygon class="r5c0-left" points="0,180 0,150 15,165"/>
        <polygon class="r5c7-right" points="240,150 240,180 225,165"/>
        <polygon class="r5c7-bottom" points="240,180 210,180 225,165"/>

        <polygon class="r6c0-top" points="0,180 30,180 15,195"/>
        <polygon class="r6c0-right" points="30,180 30,210 15,195"/>
        <polygon class="r6c0-bottom" points="30,210 0,210 15,195"/>
        <polygon class="r6c0-left" points="0,210 0,180 15,195"/>
        <polygon class="r6c1-bottom" points="60,210 30,210 45,195"/>
        <polygon class="r6c1-left" points="30,210 30,180 45,195"/>
        <polygon class="r6c6-right" points="210,180 210,210 195,195"/>
        <polygon class="r6c6-bottom" points="210,210 180,210 195,195"/>
        <polygon class="r6c7-top" points="210,180 240,180 225,195"/>
        <polygon class="r6c7-right" points="240,180 240,210 225,195"/>
        <polygon class="r6c7-bottom" points="240,210 210,210 225,195"/>
        <polygon class="r6c7-left" points="210,210 210,180 225,195"/>

        <polygon class="r7c0-top" points="0,210 30,210 15,225"/>
        <polygon class="r7c0-right" points="30,210 30,240 15,225"/>
        <polygon class="r7c0-bottom" points="30,240 0,240 15,225"/>
        <polygon class="r7c0-left" points="0,240 0,210 15,225"/>
        <polygon class="r7c1-top" points="30,210 60,210 45,225"/>
        <polygon class="r7c1-right" points="60,210 60,240 45,225"/>
        <polygon class="r7c1-bottom" points="60,240 30,240 45,225"/>
        <polygon class="r7c1-left" points="30,240 30,210 45,225"/>
        <polygon class="r7c2-bottom" points="90,240 60,240 75,225"/>
        <polygon class="r7c2-left" points="60,240 60,210 75,225"/>
        <polygon class="r7c5-right" points="180,210 180,240 165,225"/>
        <polygon class="r7c5-bottom" points="180,240 150,240 165,225"/>
        <polygon class="r7c6-top" points="180,210 210,210 195,225"/>
        <polygon class="r7c6-right" points="210,210 210,240 195,225"/>
        <polygon class="r7c6-bottom" points="210,240 180,240 195,225"/>
        <polygon class="r7c6-left" points="180,240 180,210 195,225"/>
        <polygon class="r7c7-top" points="210,210 240,210 225,225"/>
        <polygon class="r7c7-right" points="240,210 240,240 225,225"/>
        <polygon class="r7c7-bottom" points="240,240 210,240 225,225"/>
        <polygon class="r7c7-left" points="210,240 210,210 225,225"/>
    </g>
</svg>
