<svg xmlns="http://www.w3.org/2000/svg" width="240" height="240" viewBox="0 0 240 240" data-codepoint="U+0066" data-char="f" data-variant="alt">
    <title>Glyph U+0066 (f) alt</title>
    <desc>Generated glyph for U+0066 | LATIN SMALL LETTER F | grid 8x8 | 256 bits | inverse occupancy (0=active,1=inactive)</desc>

    <!-- Background -->
    <rect x="0" y="0" width="240" height="240" fill="#fff"/>

    <!-- Grid cells, each cell has 4 editable triangles (class-based selectors) -->
    <g fill="#000" shape-rendering="crispEdges">


        <polygon class="r2c7-top" points="210,60 240,60 225,75"/>
        <polygon class="r2c7-right" points="240,60 240,90 225,75"/>
        <polygon class="r2c7-bottom" points="240,90 210,90 225,75"/>
        <polygon class="r2c7-left" points="210,90 210,60 225,75"/>



        <polygon class="r5c7-top" points="210,150 240,150 225,165"/>
        <polygon class="r5c7-right" points="240,150 240,180 225,165"/>
        <polygon class="r5c7-bottom" points="240,180 210,180 225,165"/>
        <polygon class="r5c7-left" points="210,180 210,150 225,165"/>

        <polygon class="r6c7-top" points="210,180 240,180 225,195"/>
        <polygon class="r6c7-right" points="240,180 240,210 225,195"/>
        <polygon class="r6c7-bottom" points="240,210 210,210 225,195"/>
        <polygon class="r6c7-left" points="210,210 210,180 225,195"/>

        <polygon class="r7c7-top" points="210,210 240,210 225,225"/>
        <polygon class="r7c7-right" points="240,210 240,240 225,225"/>
        <polygon class="r7c7-bottom" points="240,240 210,240 225,225"/>
        <polygon class="r7c7-left" points="210,240 210,210 225,225"/>
    </g>
</svg>
