<svg xmlns="http://www.w3.org/2000/svg" width="240" height="240" viewBox="0 0 240 240" data-codepoint="U+0023" data-char="#" data-variant="alt">
    <title>Glyph U+0023 (#) alt</title>
    <desc>Generated glyph for U+0023 | NUMBER SIGN | grid 8x8 | 256 bits | inverse occupancy (0=active,1=inactive)</desc>

    <!-- Background -->
    <rect x="0" y="0" width="240" height="240" fill="#fff"/>

    <!-- Grid cells, each cell has 4 editable triangles (class-based selectors) -->
    <g fill="#000" shape-rendering="crispEdges">
        <polygon class="r0c0-top" points="0,0 30,0 15,15"/>
        <polygon class="r0c0-right" points="30,0 30,30 15,15"/>
        <polygon class="r0c0-bottom" points="30,30 0,30 15,15"/>
        <polygon class="r0c0-left" points="0,30 0,0 15,15"/>
        <polygon class="r0c3-top" points="90,0 120,0 105,15"/>
        <polygon class="r0c3-right" points="120,0 120,30 105,15"/>
        <polygon class="r0c3-bottom" points="120,30 90,30 105,15"/>
        <polygon class="r0c3-left" points="90,30 90,0 105,15"/>
        <polygon class="r0c4-top" points="120,0 150,0 135,15"/>
        <polygon class="r0c4-right" points="150,0 150,30 135,15"/>
        <polygon class="r0c4-bottom" points="150,30 120,30 135,15"/>
        <polygon class="r0c4-left" points="120,30 120,0 135,15"/>
        <polygon class="r0c7-top" points="210,0 240,0 225,15"/>
        <polygon class="r0c7-right" points="240,0 240,30 225,15"/>
        <polygon class="r0c7-bottom" points="240,30 210,30 225,15"/>
        <polygon class="r0c7-left" points="210,30 210,0 225,15"/>



        <polygon class="r3c0-top" points="0,90 30,90 15,105"/>
        <polygon class="r3c0-right" points="30,90 30,120 15,105"/>
        <polygon class="r3c0-bottom" points="30,120 0,120 15,105"/>
        <polygon class="r3c0-left" points="0,120 0,90 15,105"/>
        <polygon class="r3c3-top" points="90,90 120,90 105,105"/>
        <polygon class="r3c3-right" points="120,90 120,120 105,105"/>
        <polygon class="r3c3-bottom" points="120,120 90,120 105,105"/>
        <polygon class="r3c3-left" points="90,120 90,90 105,105"/>
        <polygon class="r3c4-top" points="120,90 150,90 135,105"/>
        <polygon class="r3c4-right" points="150,90 150,120 135,105"/>
        <polygon class="r3c4-bottom" points="150,120 120,120 135,105"/>
        <polygon class="r3c4-left" points="120,120 120,90 135,105"/>
        <polygon class="r3c7-top" points="210,90 240,90 225,105"/>
        <polygon class="r3c7-right" points="240,90 240,120 225,105"/>
        <polygon class="r3c7-bottom" points="240,120 210,120 225,105"/>
        <polygon class="r3c7-left" points="210,120 210,90 225,105"/>

        <polygon class="r4c0-top" points="0,120 30,120 15,135"/>
        <polygon class="r4c0-right" points="30,120 30,150 15,135"/>
        <polygon class="r4c0-bottom" points="30,150 0,150 15,135"/>
        <polygon class="r4c0-left" points="0,150 0,120 15,135"/>
        <polygon class="r4c3-top" points="90,120 120,120 105,135"/>
        <polygon class="r4c3-right" points="120,120 120,150 105,135"/>
        <polygon class="r4c3-bottom" points="120,150 90,150 105,135"/>
        <polygon class="r4c3-left" points="90,150 90,120 105,135"/>
        <polygon class="r4c4-top" points="120,120 150,120 135,135"/>
        <polygon class="r4c4-right" points="150,120 150,150 135,135"/>
        <polygon class="r4c4-bottom" points="150,150 120,150 135,135"/>
        <polygon class="r4c4-left" points="120,150 120,120 135,135"/>
        <polygon class="r4c7-top" points="210,120 240,120 225,135"/>
        <polygon class="r4c7-right" points="240,120 240,150 225,135"/>
        <polygon class="r4c7-bottom" points="240,150 210,150 225,135"/>
        <polygon class="r4c7-left" points="210,150 210,120 225,135"/>



        <polygon class="r7c0-top" points="0,210 30,210 15,225"/>
        <polygon class="r7c0-right" points="30,210 30,240 15,225"/>
        <polygon class="r7c0-bottom" points="30,240 0,240 15,225"/>
        <polygon class="r7c0-left" points="0,240 0,210 15,225"/>
        <polygon class="r7c3-top" points="90,210 120,210 105,225"/>
        <polygon class="r7c3-right" points="120,210 120,240 105,225"/>
        <polygon class="r7c3-bottom" points="120,240 90,240 105,225"/>
        <polygon class="r7c3-left" points="90,240 90,210 105,225"/>
        <polygon class="r7c4-top" points="120,210 150,210 135,225"/>
        <polygon class="r7c4-right" points="150,210 150,240 135,225"/>
        <polygon class="r7c4-bottom" points="150,240 120,240 135,225"/>
        <polygon class="r7c4-left" points="120,240 120,210 135,225"/>
        <polygon class="r7c7-top" points="210,210 240,210 225,225"/>
        <polygon class="r7c7-right" points="240,210 240,240 225,225"/>
        <polygon class="r7c7-bottom" points="240,240 210,240 225,225"/>
        <polygon class="r7c7-left" points="210,240 210,210 225,225"/>
    </g>
</svg>
