<svg xmlns="http://www.w3.org/2000/svg" width="240" height="240" viewBox="0 0 240 240" data-codepoint="U+0069" data-char="i" data-variant="alt">
    <title>Glyph U+0069 (i) alt</title>
    <desc>Generated glyph for U+0069 | LATIN SMALL LETTER I | grid 8x8 | 256 bits | inverse occupancy (0=active,1=inactive)</desc>

    <!-- Background -->
    <rect x="0" y="0" width="240" height="240" fill="#fff"/>

    <!-- Grid cells, each cell has 4 editable triangles (class-based selectors) -->
    <g fill="#000" shape-rendering="crispEdges">



        <polygon class="r3c0-top" points="0,90 30,90 15,105"/>
        <polygon class="r3c0-right" points="30,90 30,120 15,105"/>
        <polygon class="r3c0-bottom" points="30,120 0,120 15,105"/>
        <polygon class="r3c0-left" points="0,120 0,90 15,105"/>
        <polygon class="r3c7-top" points="210,90 240,90 225,105"/>
        <polygon class="r3c7-right" points="240,90 240,120 225,105"/>
        <polygon class="r3c7-bottom" points="240,120 210,120 225,105"/>
        <polygon class="r3c7-left" points="210,120 210,90 225,105"/>

        <polygon class="r4c0-top" points="0,120 30,120 15,135"/>
        <polygon class="r4c0-right" points="30,120 30,150 15,135"/>
        <polygon class="r4c0-bottom" points="30,150 0,150 15,135"/>
        <polygon class="r4c0-left" points="0,150 0,120 15,135"/>
        <polygon class="r4c7-top" points="210,120 240,120 225,135"/>
        <polygon class="r4c7-right" points="240,120 240,150 225,135"/>
        <polygon class="r4c7-bottom" points="240,150 210,150 225,135"/>
        <polygon class="r4c7-left" points="210,150 210,120 225,135"/>



    </g>
</svg>
