<svg xmlns="http://www.w3.org/2000/svg" viewBox="0 0 1590 1590" shape-rendering="crispEdges"><g transform="translate(0 0)"><path d="M 0 120 L 0 150 L 0 180 L 0 210 L 15 225 L 30 240 L 60 240 L 90 240 L 120 240 L 150 240 L 180 240 L 210 240 L 225 225 L 240 210 L 240 180 L 240 150 L 240 120 L 240 90 L 240 60 L 240 30 L 225 15 L 210 0 L 180 0 L 150 0 L 120 0 L 90 0 L 60 0 L 30 0 L 15 15 L 0 30 L 0 60 L 0 90 Z M 90 120 L 105 105 L 120 90 L 135 105 L 150 120 L 135 135 L 120 150 L 105 135 Z" fill="#000" fill-rule="evenodd" /></g><g transform="translate(270 0)"><path d="M 0 30 L 0 60 L 0 90 L 30 90 L 30 120 L 30 150 L 0 150 L 0 180 L 0 210 L 0 240 L 30 240 L 60 240 L 90 240 L 120 240 L 150 240 L 180 240 L 210 240 L 240 240 L 240 210 L 240 180 L 240 150 L 210 150 L 210 120 L 210 90 L 210 60 L 210 30 L 210 0 L 180 0 L 150 0 L 120 0 L 90 0 L 60 0 L 30 0 L 0 0 Z" fill="#000" fill-rule="evenodd" /></g><g transform="translate(540 0)"><path d="M 0 30 L 0 60 L 0 90 L 30 90 L 30 120 L 0 120 L 0 150 L 0 180 L 0 210 L 0 240 L 30 240 L 60 240 L 90 240 L 120 240 L 150 240 L 180 240 L 210 240 L 240 240 L 240 210 L 240 180 L 240 150 L 210 150 L 225 135 L 240 120 L 240 90 L 240 60 L 240 30 L 240 0 L 210 0 L 180 0 L 150 0 L 120 0 L 90 0 L 60 0 L 30 0 L 0 0 Z" fill="#000" fill-rule="evenodd" /></g><g transform="translate(810 0)"><path d="M 0 60 L 30 60 L 30 90 L 0 90 L 0 120 L 0 150 L 30 150 L 30 180 L 0 180 L 0 210 L 0 240 L 30 240 L 60 240 L 90 240 L 120 240 L 150 240 L 180 240 L 210 240 L 240 240 L 240 210 L 240 180 L 240 150 L 225 135 L 210 120 L 225 105 L 240 90 L 240 60 L 240 30 L 240 0 L 210 0 L 180 0 L 150 0 L 120 0 L 90 0 L 60 0 L 30 0 L 0 0 L 0 30 Z" fill="#000" fill-rule="evenodd" /></g><g transform="translate(1080 0)"><path d="M 0 120 L 0 150 L 0 180 L 0 210 L 30 210 L 60 210 L 60 240 L 90 240 L 120 240 L 150 240 L 180 240 L 210 240 L 240 240 L 240 210 L 240 180 L 240 150 L 240 120 L 240 90 L 240 60 L 240 30 L 240 0 L 210 0 L 180 0 L 150 0 L 120 0 L 90 0 L 60 0 L 30 0 L 15 15 L 0 30 L 0 60 L 0 90 Z M 105 105 L 120 90 L 120 120 L 90 120 Z" fill="#000" fill-rule="evenodd" /></g><g transform="translate(1350 0)"><path d="M 0 120 L 15 135 L 30 150 L 15 165 L 0 180 L 0 210 L 0 240 L 30 240 L 60 240 L 90 240 L 120 240 L 150 240 L 180 240 L 210 240 L 240 240 L 240 210 L 240 180 L 240 150 L 240 120 L 240 90 L 210 90 L 180 90 L 180 60 L 210 60 L 240 60 L 240 30 L 240 0 L 210 0 L 180 0 L 150 0 L 120 0 L 90 0 L 60 0 L 30 0 L 0 0 L 0 30 L 0 60 L 0 90 Z" fill="#000" fill-rule="evenodd" /></g><g transform="translate(0 270)"><path d="M 0 30 L 0 60 L 0 90 L 0 120 L 0 150 L 0 180 L 0 210 L 0 240 L 30 240 L 60 240 L 90 240 L 120 240 L 150 240 L 180 240 L 210 240 L 240 240 L 240 210 L 240 180 L 240 150 L 240 120 L 240 90 L 240 60 L 240 30 L 210 30 L 180 30 L 180 0 L 150 0 L 120 0 L 90 0 L 60 0 L 30 0 L 0 0 Z M 90 120 L 120 120 L 120 150 L 90 150 Z" fill="#000" fill-rule="evenodd" /></g><g transform="translate(270 270)"><path d="M 0 30 L 0 60 L 0 90 L 30 90 L 15 105 L 0 120 L 0 150 L 0 180 L 0 210 L 0 240 L 30 240 L 60 240 L 90 240 L 120 240 L 150 240 L 180 240 L 210 240 L 210 210 L 210 180 L 240 180 L 240 150 L 240 120 L 240 90 L 240 60 L 240 30 L 240 0 L 210 0 L 180 0 L 150 0 L 120 0 L 90 0 L 60 0 L 30 0 L 0 0 Z" fill="#000" fill-rule="evenodd" /></g><g transform="translate(540 270)"><path d="M 30 120 L 15 135 L 0 150 L 0 180 L 0 210 L 0 240 L 30 240 L 60 240 L 90 240 L 120 240 L 150 240 L 180 240 L 210 240 L 240 240 L 240 210 L 240 180 L 240 150 L 225 135 L 210 120 L 225 105 L 240 90 L 240 60 L 240 30 L 240 0 L 210 0 L 180 0 L 150 0 L 120 0 L 90 0 L 60 0 L 30 0 L 0 0 L 0 30 L 0 60 L 0 90 L 15 105 Z M 105 165 L 120 150 L 135 165 L 150 180 L 120 180 L 90 180 Z M 120 90 L 105 75 L 90 60 L 120 60 L 150 60 L 135 75 Z" fill="#000" fill-rule="evenodd" /></g><g transform="translate(810 270)"><path d="M 0 60 L 0 90 L 0 120 L 0 150 L 0 180 L 30 180 L 30 210 L 30 240 L 60 240 L 90 240 L 120 240 L 150 240 L 180 240 L 210 240 L 240 240 L 240 210 L 240 180 L 240 150 L 240 120 L 240 90 L 240 60 L 240 30 L 240 0 L 210 0 L 180 0 L 150 0 L 120 0 L 90 0 L 60 0 L 30 0 L 0 0 L 0 30 Z M 120 90 L 150 90 L 150 120 L 120 120 Z" fill="#000" fill-rule="evenodd" /></g><g transform="translate(1080 270)"><path d="M 0 30 L 0 60 L 0 90 L 0 120 L 0 150 L 0 180 L 0 210 L 0 240 L 30 240 L 60 240 L 90 240 L 90 210 L 120 210 L 150 210 L 150 240 L 180 240 L 210 240 L 240 240 L 240 210 L 240 180 L 240 150 L 240 120 L 240 90 L 240 60 L 240 30 L 240 0 L 210 0 L 180 0 L 150 0 L 120 0 L 90 0 L 60 0 L 30 0 L 0 0 Z M 90 90 L 120 90 L 150 90 L 150 120 L 120 120 L 90 120 Z" fill="#000" fill-rule="evenodd" /></g><g transform="translate(1350 270)"><path d="M 0 90 L 0 120 L 0 150 L 0 180 L 0 210 L 0 240 L 30 240 L 60 240 L 90 240 L 120 240 L 150 240 L 180 240 L 210 240 L 225 225 L 240 210 L 240 180 L 240 150 L 225 135 L 210 120 L 225 105 L 240 90 L 240 60 L 240 30 L 225 15 L 210 0 L 180 0 L 150 0 L 120 0 L 90 0 L 60 0 L 30 0 L 0 0 L 0 30 L 0 60 Z M 120 90 L 120 60 L 150 60 L 150 90 Z M 150 150 L 150 180 L 120 180 L 120 150 Z" fill="#000" fill-rule="evenodd" /></g><g transform="translate(0 540)"><path d="M 0 120 L 0 150 L 0 180 L 0 210 L 15 225 L 30 240 L 60 240 L 90 240 L 120 240 L 150 240 L 180 240 L 210 240 L 240 240 L 240 210 L 240 180 L 240 150 L 210 150 L 210 120 L 210 90 L 240 90 L 240 60 L 240 30 L 240 0 L 210 0 L 180 0 L 150 0 L 120 0 L 90 0 L 60 0 L 30 0 L 15 15 L 0 30 L 0 60 L 0 90 Z" fill="#000" fill-rule="evenodd" /></g><g transform="translate(270 540)"><path d="M 0 30 L 0 60 L 0 90 L 0 120 L 0 150 L 0 180 L 0 210 L 0 240 L 30 240 L 60 240 L 90 240 L 120 240 L 150 240 L 180 240 L 210 240 L 225 225 L 240 210 L 240 180 L 240 150 L 240 120 L 240 90 L 240 60 L 240 30 L 225 15 L 210 0 L 180 0 L 150 0 L 120 0 L 90 0 L 60 0 L 30 0 L 0 0 Z M 135 105 L 150 120 L 135 135 L 120 150 L 120 120 L 120 90 Z" fill="#000" fill-rule="evenodd" /></g><g transform="translate(540 540)"><path d="M 0 30 L 0 60 L 0 90 L 0 120 L 0 150 L 0 180 L 0 210 L 0 240 L 30 240 L 60 240 L 90 240 L 120 240 L 150 240 L 180 240 L 210 240 L 240 240 L 240 210 L 240 180 L 210 180 L 210 150 L 240 150 L 240 120 L 240 90 L 210 90 L 210 60 L 240 60 L 240 30 L 240 0 L 210 0 L 180 0 L 150 0 L 120 0 L 90 0 L 60 0 L 30 0 L 0 0 Z" fill="#000" fill-rule="evenodd" /></g><g transform="translate(810 540)"><path d="M 0 30 L 0 60 L 0 90 L 0 120 L 0 150 L 0 180 L 0 210 L 0 240 L 30 240 L 60 240 L 90 240 L 120 240 L 150 240 L 180 240 L 210 240 L 210 210 L 210 180 L 210 150 L 240 150 L 240 120 L 240 90 L 210 90 L 210 60 L 240 60 L 240 30 L 240 0 L 210 0 L 180 0 L 150 0 L 120 0 L 90 0 L 60 0 L 30 0 L 0 0 Z" fill="#000" fill-rule="evenodd" /></g><g transform="translate(1080 540)"><path d="M 0 30 L 0 60 L 0 90 L 0 120 L 0 150 L 0 180 L 0 210 L 0 240 L 30 240 L 60 240 L 90 240 L 120 240 L 150 240 L 180 240 L 210 240 L 240 240 L 240 210 L 240 180 L 240 150 L 240 120 L 210 120 L 180 120 L 150 120 L 150 150 L 120 150 L 120 120 L 120 90 L 150 90 L 180 90 L 210 90 L 240 90 L 240 60 L 240 30 L 240 0 L 210 0 L 180 0 L 150 0 L 120 0 L 90 0 L 60 0 L 30 0 L 0 0 Z" fill="#000" fill-rule="evenodd" /></g><g transform="translate(1350 540)"><path d="M 0 90 L 0 120 L 0 150 L 0 180 L 0 210 L 0 240 L 30 240 L 60 240 L 90 240 L 90 210 L 120 210 L 150 210 L 150 240 L 180 240 L 210 240 L 240 240 L 240 210 L 240 180 L 240 150 L 240 120 L 240 90 L 240 60 L 240 30 L 240 0 L 210 0 L 180 0 L 150 0 L 150 30 L 120 30 L 90 30 L 90 0 L 60 0 L 30 0 L 0 0 L 0 30 L 0 60 Z" fill="#000" fill-rule="evenodd" /></g><g transform="translate(0 810)"><path d="M 30 120 L 30 150 L 0 150 L 0 180 L 0 210 L 0 240 L 30 240 L 60 240 L 90 240 L 120 240 L 150 240 L 180 240 L 210 240 L 240 240 L 240 210 L 240 180 L 240 150 L 210 150 L 210 120 L 210 90 L 240 90 L 240 60 L 240 30 L 240 0 L 210 0 L 180 0 L 150 0 L 120 0 L 90 0 L 60 0 L 30 0 L 0 0 L 0 30 L 0 60 L 0 90 L 30 90 Z" fill="#000" fill-rule="evenodd" /></g><g transform="translate(270 810)"><path d="M 30 120 L 30 150 L 0 150 L 0 180 L 0 210 L 0 240 L 30 240 L 60 240 L 90 240 L 120 240 L 150 240 L 180 240 L 210 240 L 225 225 L 240 210 L 240 180 L 240 150 L 240 120 L 240 90 L 240 60 L 240 30 L 240 0 L 210 0 L 180 0 L 150 0 L 120 0 L 90 0 L 60 0 L 30 0 L 0 0 L 0 30 L 0 60 L 0 90 L 30 90 Z" fill="#000" fill-rule="evenodd" /></g><g transform="translate(540 810)"><path d="M 0 30 L 0 60 L 0 90 L 0 120 L 0 150 L 0 180 L 0 210 L 0 240 L 30 240 L 60 240 L 90 240 L 120 240 L 120 210 L 135 225 L 150 240 L 180 240 L 210 240 L 240 240 L 240 210 L 240 180 L 240 150 L 225 135 L 210 120 L 225 105 L 240 90 L 240 60 L 240 30 L 240 0 L 210 0 L 180 0 L 150 0 L 135 15 L 120 30 L 120 0 L 90 0 L 60 0 L 30 0 L 0 0 Z" fill="#000" fill-rule="evenodd" /></g><g transform="translate(810 810)"><path d="M 0 90 L 0 120 L 0 150 L 0 180 L 0 210 L 0 240 L 30 240 L 60 240 L 90 240 L 120 240 L 150 240 L 180 240 L 210 240 L 240 240 L 240 210 L 240 180 L 240 150 L 240 120 L 210 120 L 210 90 L 210 60 L 210 30 L 210 0 L 180 0 L 150 0 L 120 0 L 90 0 L 60 0 L 30 0 L 0 0 L 0 30 L 0 60 Z" fill="#000" fill-rule="evenodd" /></g><g transform="translate(1080 810)"><path d="M 0 60 L 0 90 L 0 120 L 0 150 L 0 180 L 0 210 L 0 240 L 30 240 L 60 240 L 90 240 L 90 210 L 105 225 L 120 240 L 135 225 L 150 210 L 150 240 L 180 240 L 210 240 L 240 240 L 240 210 L 240 180 L 240 150 L 240 120 L 240 90 L 240 60 L 240 30 L 240 0 L 210 0 L 180 0 L 150 0 L 135 15 L 120 30 L 105 15 L 90 0 L 60 0 L 30 0 L 0 0 L 0 30 Z" fill="#000" fill-rule="evenodd" /></g><g transform="translate(1350 810)"><path d="M 0 30 L 0 60 L 0 90 L 0 120 L 0 150 L 0 180 L 0 210 L 0 240 L 30 240 L 60 240 L 90 240 L 90 210 L 105 225 L 120 240 L 150 240 L 180 240 L 210 240 L 240 240 L 240 210 L 240 180 L 240 150 L 240 120 L 240 90 L 240 60 L 240 30 L 240 0 L 210 0 L 180 0 L 150 0 L 150 30 L 135 15 L 120 0 L 90 0 L 60 0 L 30 0 L 0 0 Z" fill="#000" fill-rule="evenodd" /></g><g transform="translate(0 1080)"><path d="M 0 30 L 0 60 L 0 90 L 0 120 L 0 150 L 0 180 L 0 210 L 0 240 L 30 240 L 60 240 L 90 240 L 120 240 L 150 240 L 180 240 L 210 240 L 240 240 L 240 210 L 240 180 L 240 150 L 240 120 L 240 90 L 240 60 L 240 30 L 240 0 L 210 0 L 180 0 L 150 0 L 120 0 L 90 0 L 60 0 L 30 0 L 0 0 Z M 90 120 L 90 90 L 120 90 L 150 90 L 150 120 L 150 150 L 120 150 L 90 150 Z" fill="#000" fill-rule="evenodd" /></g><g transform="translate(270 1080)"><path d="M 0 90 L 0 120 L 0 150 L 0 180 L 0 210 L 0 240 L 30 240 L 60 240 L 90 240 L 120 240 L 150 240 L 180 240 L 210 240 L 210 210 L 210 180 L 240 180 L 240 150 L 240 120 L 240 90 L 240 60 L 240 30 L 240 0 L 210 0 L 180 0 L 150 0 L 120 0 L 90 0 L 60 0 L 30 0 L 0 0 L 0 30 L 0 60 Z M 120 90 L 120 60 L 150 60 L 150 90 Z" fill="#000" fill-rule="evenodd" /></g><g transform="translate(540 1080)"><path d="M 0 150 L 0 180 L 30 180 L 30 210 L 30 240 L 60 240 L 90 240 L 120 240 L 150 240 L 180 240 L 210 240 L 240 240 L 240 210 L 240 180 L 240 150 L 240 120 L 240 90 L 240 60 L 240 30 L 240 0 L 210 0 L 180 0 L 150 0 L 120 0 L 90 0 L 60 0 L 30 0 L 0 0 L 0 30 L 0 60 L 0 90 L 0 120 Z M 90 90 L 90 60 L 120 60 L 120 90 Z" fill="#000" fill-rule="evenodd" /></g><g transform="translate(810 1080)"><path d="M 0 150 L 0 180 L 0 210 L 0 240 L 30 240 L 60 240 L 90 240 L 120 240 L 120 210 L 120 180 L 150 180 L 150 210 L 150 240 L 180 240 L 210 240 L 240 240 L 240 210 L 240 180 L 240 150 L 225 135 L 210 120 L 240 120 L 240 90 L 240 60 L 240 30 L 240 0 L 210 0 L 180 0 L 150 0 L 120 0 L 90 0 L 60 0 L 30 0 L 0 0 L 0 30 L 0 60 L 0 90 L 0 120 Z M 120 60 L 150 60 L 150 90 L 120 90 Z" fill="#000" fill-rule="evenodd" /></g><g transform="translate(1080 1080)"><path d="M 0 30 L 0 60 L 0 90 L 0 120 L 0 150 L 30 150 L 30 180 L 0 180 L 0 210 L 0 240 L 30 240 L 60 240 L 90 240 L 120 240 L 150 240 L 180 240 L 210 240 L 240 240 L 240 210 L 240 180 L 240 150 L 240 120 L 240 90 L 210 90 L 210 60 L 240 60 L 240 30 L 240 0 L 210 0 L 180 0 L 150 0 L 120 0 L 90 0 L 60 0 L 30 0 L 0 0 Z" fill="#000" fill-rule="evenodd" /></g><g transform="translate(1350 1080)"><path d="M 0 30 L 0 60 L 0 90 L 0 120 L 0 150 L 0 180 L 30 180 L 30 210 L 30 240 L 60 240 L 90 240 L 120 240 L 150 240 L 180 240 L 210 240 L 210 210 L 210 180 L 240 180 L 240 150 L 240 120 L 240 90 L 240 60 L 240 30 L 240 0 L 210 0 L 180 0 L 150 0 L 120 0 L 90 0 L 60 0 L 30 0 L 0 0 Z" fill="#000" fill-rule="evenodd" /></g><g transform="translate(0 1350)"><path d="M 0 30 L 0 60 L 0 90 L 0 120 L 0 150 L 0 180 L 0 210 L 0 240 L 30 240 L 60 240 L 90 240 L 120 240 L 150 240 L 180 240 L 210 240 L 240 240 L 240 210 L 240 180 L 240 150 L 240 120 L 240 90 L 240 60 L 240 30 L 240 0 L 210 0 L 180 0 L 150 0 L 150 30 L 120 30 L 90 30 L 90 0 L 60 0 L 30 0 L 0 0 Z" fill="#000" fill-rule="evenodd" /></g><g transform="translate(270 1350)"><path d="M 0 90 L 0 120 L 0 150 L 0 180 L 0 210 L 15 225 L 30 240 L 60 240 L 90 240 L 120 240 L 150 240 L 180 240 L 210 240 L 225 225 L 240 210 L 240 180 L 240 150 L 240 120 L 240 90 L 240 60 L 240 30 L 240 0 L 210 0 L 180 0 L 150 0 L 135 15 L 120 30 L 105 15 L 90 0 L 60 0 L 30 0 L 0 0 L 0 30 L 0 60 Z" fill="#000" fill-rule="evenodd" /></g><g transform="translate(540 1350)"><path d="M 0 60 L 0 90 L 0 120 L 0 150 L 0 180 L 0 210 L 0 240 L 30 240 L 60 240 L 90 240 L 105 225 L 120 210 L 135 225 L 150 240 L 180 240 L 210 240 L 240 240 L 240 210 L 240 180 L 240 150 L 240 120 L 240 90 L 240 60 L 240 30 L 240 0 L 210 0 L 180 0 L 150 0 L 150 30 L 135 15 L 120 0 L 105 15 L 90 30 L 90 0 L 60 0 L 30 0 L 0 0 L 0 30 Z" fill="#000" fill-rule="evenodd" /></g><g transform="translate(810 1350)"><path d="M 30 120 L 15 135 L 0 150 L 0 180 L 0 210 L 0 240 L 30 240 L 60 240 L 90 240 L 105 225 L 120 210 L 135 225 L 150 240 L 180 240 L 210 240 L 240 240 L 240 210 L 240 180 L 240 150 L 225 135 L 210 120 L 225 105 L 240 90 L 240 60 L 240 30 L 240 0 L 210 0 L 180 0 L 150 0 L 135 15 L 120 30 L 105 15 L 90 0 L 60 0 L 30 0 L 0 0 L 0 30 L 0 60 L 0 90 L 15 105 Z" fill="#000" fill-rule="evenodd" /></g><g transform="translate(1080 1350)"><path d="M 0 90 L 0 120 L 0 150 L 0 180 L 0 210 L 30 210 L 30 240 L 60 240 L 90 240 L 120 240 L 150 240 L 180 240 L 210 240 L 210 210 L 240 210 L 240 180 L 240 150 L 240 120 L 240 90 L 240 60 L 240 30 L 240 0 L 210 0 L 180 0 L 150 0 L 135 15 L 120 30 L 105 15 L 90 0 L 60 0 L 30 0 L 0 0 L 0 30 L 0 60 Z" fill="#000" fill-rule="evenodd" /></g><g transform="translate(1350 1350)"><path d="M 0 90 L 30 90 L 15 105 L 0 120 L 0 150 L 0 180 L 0 210 L 0 240 L 30 240 L 60 240 L 90 240 L 120 240 L 150 240 L 180 240 L 210 240 L 240 240 L 240 210 L 240 180 L 240 150 L 210 150 L 225 135 L 240 120 L 240 90 L 240 60 L 240 30 L 240 0 L 210 0 L 180 0 L 150 0 L 120 0 L 90 0 L 60 0 L 30 0 L 0 0 L 0 30 L 0 60 Z" fill="#000" fill-rule="evenodd" /></g></svg>
